<svg width="25" height="25" viewBox="0 0 25 25" fill="none" xmlns="http://www.w3.org/2000/svg">
<path d="M21.6111 20.2724L21.5278 20.1855L20.0594 18.6996C19.7688 18.4055 19.3877 18.2212 18.9793 18.1773C18.571 18.1334 18.1601 18.2326 17.8152 18.4584L15.8256 16.4418C17.1489 14.9739 17.8534 13.0395 17.7883 11.0522C17.7232 9.06478 16.8938 7.18204 15.4773 5.8063C14.0608 4.43055 12.1695 3.67094 10.2078 3.6898C8.24601 3.70865 6.36934 4.50449 4.97882 5.90721C3.58831 7.30994 2.79426 9.20829 2.76638 11.1965C2.7385 13.1848 3.479 15.1053 4.82962 16.5475C6.18024 17.9897 8.03385 18.8393 9.99429 18.9146C11.9547 18.99 13.8665 18.2851 15.321 16.9508L17.313 18.9698C17.0817 19.3178 16.9765 19.7362 17.0151 20.1539C17.0537 20.5716 17.2338 20.963 17.5248 21.2614L19.0765 22.8341C19.4117 23.1748 19.8666 23.3665 20.3413 23.3672C20.816 23.3679 21.2715 23.1774 21.6076 22.8377C21.9437 22.498 22.1329 22.0369 22.1335 21.5558C22.1342 21.0747 21.9463 20.613 21.6111 20.2724ZM17.0631 11.3713C17.0631 12.731 16.6653 14.0602 15.92 15.1908C15.1747 16.3213 14.1154 17.2025 12.876 17.7228C11.6366 18.2431 10.2728 18.3793 8.95709 18.114C7.64136 17.8487 6.43279 17.194 5.4842 16.2325C4.53561 15.2711 3.88961 14.0461 3.6279 12.7125C3.36619 11.379 3.50051 9.99667 4.01388 8.74047C4.52725 7.48427 5.39661 6.41058 6.51204 5.65517C7.62746 4.89976 8.93883 4.49656 10.2803 4.49656C12.0787 4.49848 13.8028 5.2234 15.0744 6.51225C16.346 7.80111 17.0612 9.54862 17.0631 11.3713ZM21.0923 22.3324C20.8912 22.5351 20.6191 22.6488 20.3355 22.6488C20.0519 22.6488 19.7798 22.5351 19.5787 22.3324L18.0413 20.75C17.8517 20.5445 17.7483 20.2725 17.7528 19.9913C17.7572 19.71 17.8692 19.4415 18.0651 19.2423C18.261 19.0431 18.5256 18.9288 18.8031 18.9234C19.0805 18.918 19.3492 19.022 19.5525 19.2134L21.0923 20.7789C21.1927 20.8798 21.2724 20.9999 21.3267 21.1322C21.3811 21.2644 21.4091 21.4063 21.4091 21.5496C21.4091 21.6929 21.3811 21.8348 21.3267 21.9671C21.2724 22.0993 21.1927 22.2194 21.0923 22.3203V22.3324Z" fill="#000"></path>
</svg>